TITLE ""
FILE "P1Q_t_1259-1268.mp3" MP3
  TRACK 01 AUDIO
    TITLE "P1Q_t_1259-1268_01"
    INDEX 01 00:00:00
  TRACK 02 AUDIO
    TITLE "P1Q_t_1259-1268_02"
    INDEX 01 00:01:27
  TRACK 03 AUDIO
    TITLE "P1Q_t_1259-1268_03"
    INDEX 01 00:01:47
  TRACK 04 AUDIO
    TITLE "P1Q_t_1259-1268_04"
    INDEX 01 00:03:75
  TRACK 05 AUDIO
    TITLE "P1Q_t_1259-1268_05"
    INDEX 01 00:04:20
  TRACK 06 AUDIO
    TITLE "P1Q_t_1259-1268_06"
    INDEX 01 00:07:28
  TRACK 07 AUDIO
    TITLE "P1Q_t_1259-1268_07"
    INDEX 01 00:07:75
  TRACK 08 AUDIO
    TITLE "P1Q_t_1259-1268_08"
    INDEX 01 00:09:29
  TRACK 09 AUDIO
    TITLE "P1Q_t_1259-1268_09"
    INDEX 01 00:09:50
  TRACK 10 AUDIO
    TITLE "P1Q_t_1259-1268_10"
    INDEX 01 00:11:30
  TRACK 11 AUDIO
    TITLE "P1Q_t_1259-1268_11"
    INDEX 01 00:11:49
  TRACK 12 AUDIO
    TITLE "P1Q_t_1259-1268_12"
    INDEX 01 00:16:11
  TRACK 13 AUDIO
    TITLE "P1Q_t_1259-1268_13"
    INDEX 01 00:16:56
  TRACK 14 AUDIO
    TITLE "P1Q_t_1259-1268_14"
    INDEX 01 00:17:54
  TRACK 15 AUDIO
    TITLE "P1Q_t_1259-1268_15"
    INDEX 01 00:17:75
  TRACK 16 AUDIO
    TITLE "P1Q_t_1259-1268_16"
    INDEX 01 00:20:23
  TRACK 17 AUDIO
    TITLE "P1Q_t_1259-1268_17"
    INDEX 01 00:20:42
  TRACK 18 AUDIO
    TITLE "P1Q_t_1259-1268_18"
    INDEX 01 00:24:01
  TRACK 19 AUDIO
    TITLE "P1Q_t_1259-1268_19"
    INDEX 01 00:24:48
  TRACK 20 AUDIO
    TITLE "P1Q_t_1259-1268_20"
    INDEX 01 00:25:65
  TRACK 21 AUDIO
    TITLE "P1Q_t_1259-1268_21"
    INDEX 01 00:26:10
  TRACK 22 AUDIO
    TITLE "P1Q_t_1259-1268_22"
    INDEX 01 00:31:36
  TRACK 23 AUDIO
    TITLE "P1Q_t_1259-1268_23"
    INDEX 01 00:31:56
  TRACK 24 AUDIO
    TITLE "P1Q_t_1259-1268_24"
    INDEX 01 00:36:08
  TRACK 25 AUDIO
    TITLE "P1Q_t_1259-1268_25"
    INDEX 01 00:36:53
  TRACK 26 AUDIO
    TITLE "P1Q_t_1259-1268_26"
    INDEX 01 00:37:62
  TRACK 27 AUDIO
    TITLE "P1Q_t_1259-1268_27"
    INDEX 01 00:38:09
  TRACK 28 AUDIO
    TITLE "P1Q_t_1259-1268_28"
    INDEX 01 00:39:26
  TRACK 29 AUDIO
    TITLE "P1Q_t_1259-1268_29"
    INDEX 01 00:39:44
  TRACK 30 AUDIO
    TITLE "P1Q_t_1259-1268_30"
    INDEX 01 00:43:61
  TRACK 31 AUDIO
    TITLE "P1Q_t_1259-1268_31"
    INDEX 01 00:44:31
  TRACK 32 AUDIO
    TITLE "P1Q_t_1259-1268_32"
    INDEX 01 00:45:56
  TRACK 33 AUDIO
    TITLE "P1Q_t_1259-1268_33"
    INDEX 01 00:46:01
  TRACK 34 AUDIO
    TITLE "P1Q_t_1259-1268_34"
    INDEX 01 00:47:18
  TRACK 35 AUDIO
    TITLE "P1Q_t_1259-1268_35"
    INDEX 01 00:47:37
  TRACK 36 AUDIO
    TITLE "P1Q_t_1259-1268_36"
    INDEX 01 00:51:72
  TRACK 37 AUDIO
    TITLE "P1Q_t_1259-1268_37"
    INDEX 01 00:52:42
  TRACK 38 AUDIO
    TITLE "P1Q_t_1259-1268_38"
    INDEX 01 00:53:65
  TRACK 39 AUDIO
    TITLE "P1Q_t_1259-1268_39"
    INDEX 01 00:54:10
  TRACK 40 AUDIO
    TITLE "P1Q_t_1259-1268_40"
    INDEX 01 00:58:29
  TRACK 41 AUDIO
    TITLE "P1Q_t_1259-1268_41"
    INDEX 01 00:58:49
  TRACK 42 AUDIO
    TITLE "P1Q_t_1259-1268_42"
    INDEX 01 01:03:60
  TRACK 43 AUDIO
    TITLE "P1Q_t_1259-1268_43"
    INDEX 01 01:04:30
  TRACK 44 AUDIO
    TITLE "P1Q_t_1259-1268_44"
    INDEX 01 01:05:53
  TRACK 45 AUDIO
    TITLE "P1Q_t_1259-1268_45"
    INDEX 01 01:05:72
  TRACK 46 AUDIO
    TITLE "P1Q_t_1259-1268_46"
    INDEX 01 01:07:24
  TRACK 47 AUDIO
    TITLE "P1Q_t_1259-1268_47"
    INDEX 01 01:07:44
  TRACK 48 AUDIO
    TITLE "P1Q_t_1259-1268_48"
    INDEX 01 01:13:15
  TRACK 49 AUDIO
    TITLE "P1Q_t_1259-1268_49"
    INDEX 01 01:13:64
  TRACK 50 AUDIO
    TITLE "P1Q_t_1259-1268_50"
    INDEX 01 01:15:14
  TRACK 51 AUDIO
    TITLE "P1Q_t_1259-1268_51"
    INDEX 01 01:15:36
  TRACK 52 AUDIO
    TITLE "P1Q_t_1259-1268_52"
    INDEX 01 01:18:08
  TRACK 53 AUDIO
    TITLE "P1Q_t_1259-1268_53"
    INDEX 01 01:18:28
  TRACK 54 AUDIO
    TITLE "P1Q_t_1259-1268_54"
    INDEX 01 01:22:59
  TRACK 55 AUDIO
    TITLE "P1Q_t_1259-1268_55"
    INDEX 01 01:23:29
  TRACK 56 AUDIO
    TITLE "P1Q_t_1259-1268_56"
    INDEX 01 01:24:23
  TRACK 57 AUDIO
    TITLE "P1Q_t_1259-1268_57"
    INDEX 01 01:24:44
  TRACK 58 AUDIO
    TITLE "P1Q_t_1259-1268_58"
    INDEX 01 01:26:55
  TRACK 59 AUDIO
    TITLE "P1Q_t_1259-1268_59"
    INDEX 01 01:26:73
  TRACK 60 AUDIO
    TITLE "P1Q_t_1259-1268_60"
    INDEX 01 01:30:12
